<?xml version="1.0" encoding="UTF-8" standalone="no"?>
<svg
   data-name="Layer 1"
   version="1.1"
   viewBox="0 0 16 16"
   id="svg1"
   sodipodi:docname="faq.svg"
   inkscape:version="1.3.2 (091e20e, 2023-11-25, custom)"
   width="100%"
   height="100%"
   xml:space="preserve"
   xmlns:inkscape="http://www.inkscape.org/namespaces/inkscape"
   xmlns:sodipodi="http://sodipodi.sourceforge.net/DTD/sodipodi-0.dtd"
   xmlns:xlink="http://www.w3.org/1999/xlink"
   xmlns="http://www.w3.org/2000/svg"
   xmlns:svg="http://www.w3.org/2000/svg"><defs
     id="defs1"><linearGradient
       id="linearGradient1"
       inkscape:collect="always"><stop
         style="stop-color:#4760fc;stop-opacity:1;"
         offset="0"
         id="stop1" /><stop
         style="stop-color:#1ce7b6;stop-opacity:1;"
         offset="1"
         id="stop2" /></linearGradient><linearGradient
       inkscape:collect="always"
       xlink:href="#linearGradient1"
       id="linearGradient2"
       x1="8"
       y1="16"
       x2="8"
       y2="0"
       gradientUnits="userSpaceOnUse" /></defs><sodipodi:namedview
     id="namedview1"
     pagecolor="#ffffff"
     bordercolor="#666666"
     borderopacity="1.0"
     inkscape:showpageshadow="2"
     inkscape:pageopacity="0.0"
     inkscape:pagecheckerboard="0"
     inkscape:deskcolor="#d1d1d1"
     inkscape:zoom="25.168582"
     inkscape:cx="7.6682906"
     inkscape:cy="8.5622623"
     inkscape:window-width="2560"
     inkscape:window-height="1377"
     inkscape:window-x="-8"
     inkscape:window-y="-8"
     inkscape:window-maximized="1"
     inkscape:current-layer="g1"
     showgrid="false" /><rect
     width="16"
     height="16"
     fill="#4760fc"
     id="rect1"
     style="fill:url(#linearGradient2)"
     x="0"
     y="0" /><g
     style="fill:none;stroke:currentColor;stroke-width:2;stroke-linecap:round;stroke-linejoin:round"
     id="g1"
     transform="matrix(0.66666666,0,0,0.66666666,4.0000001e-8,0.027227)"><path
       stroke="none"
       d="M 0,0 H 24 V 24 H 0 Z"
       fill="none"
       id="path1-6" /><path
       d="M 4,7 H 20"
       id="path2"
       style="stroke:#ffffff;stroke-opacity:1" /><path
       d="M 4,17 H 20"
       id="path3"
       style="stroke:#ffffff;stroke-opacity:1" /><path
       d="M 7,4 V 20"
       id="path4"
       style="stroke:#ffffff;stroke-opacity:1" /><path
       d="M 17,4 V 20"
       id="path5"
       style="stroke:#ffffff;stroke-opacity:1" /><g
       style="fill:none;stroke:currentColor;stroke-width:2;stroke-linecap:round;stroke-linejoin:round"
       id="g2"
       transform="matrix(0.41666667,0,0,0.41666667,7,7)"><path
         stroke="none"
         d="M 0,0 H 24 V 24 H 0 Z"
         fill="none"
         id="path1" /><path
         d="m 19.875,6.27 c 0.7,0.398 1.13,1.143 1.125,1.948 v 7.284 c 0,0.809 -0.443,1.555 -1.158,1.948 l -6.75,4.27 a 2.269,2.269 0 0 1 -2.184,0 L 4.158,17.45 A 2.225,2.225 0 0 1 3,15.502 V 8.217 C 3,7.408 3.443,6.663 4.158,6.27 l 6.75,-3.98 a 2.33,2.33 0 0 1 2.25,0 l 6.75,3.98 z"
         id="path2-1" /><path
         d="m 12,16 v 0.01"
         id="path3-2" /><path
         d="M 12,13 A 2,2 0 0 0 12.914,9.218 1.98,1.98 0 0 0 10.5,9.701"
         id="path4-3" /></g></g></svg>
