<?xml version="1.0" encoding="UTF-8" standalone="no"?>
<svg
   data-name="Layer 1"
   version="1.1"
   viewBox="0 0 16 16"
   id="svg1"
   sodipodi:docname="image.svg"
   inkscape:version="1.3.2 (091e20e, 2023-11-25, custom)"
   width="100%"
   height="100%"
   xml:space="preserve"
   xmlns:inkscape="http://www.inkscape.org/namespaces/inkscape"
   xmlns:sodipodi="http://sodipodi.sourceforge.net/DTD/sodipodi-0.dtd"
   xmlns:xlink="http://www.w3.org/1999/xlink"
   xmlns="http://www.w3.org/2000/svg"
   xmlns:svg="http://www.w3.org/2000/svg"><defs
     id="defs1"><linearGradient
       id="linearGradient1"
       inkscape:collect="always"><stop
         style="stop-color:#4760fc;stop-opacity:1;"
         offset="0"
         id="stop1" /><stop
         style="stop-color:#1ce7b6;stop-opacity:1;"
         offset="1"
         id="stop2" /></linearGradient><linearGradient
       inkscape:collect="always"
       xlink:href="#linearGradient1"
       id="linearGradient2"
       x1="8"
       y1="16"
       x2="8"
       y2="0"
       gradientUnits="userSpaceOnUse" /></defs><sodipodi:namedview
     id="namedview1"
     pagecolor="#ffffff"
     bordercolor="#666666"
     borderopacity="1.0"
     inkscape:showpageshadow="2"
     inkscape:pageopacity="0.0"
     inkscape:pagecheckerboard="0"
     inkscape:deskcolor="#d1d1d1"
     inkscape:zoom="25.168582"
     inkscape:cx="11.224311"
     inkscape:cy="9.5555642"
     inkscape:window-width="2560"
     inkscape:window-height="1377"
     inkscape:window-x="-8"
     inkscape:window-y="-8"
     inkscape:window-maximized="1"
     inkscape:current-layer="g1"
     showgrid="false"
     showguides="true"><sodipodi:guide
       position="4.6666667,11.306106"
       orientation="1,0"
       id="guide1"
       inkscape:locked="false" /><sodipodi:guide
       position="11.333333,11.306106"
       orientation="1,0"
       id="guide2"
       inkscape:locked="false" /><sodipodi:guide
       position="13.333333,11.306106"
       orientation="0,-1"
       id="guide3"
       inkscape:locked="false" /><sodipodi:guide
       position="13.333333,4.6394398"
       orientation="0,-1"
       id="guide4"
       inkscape:locked="false" /></sodipodi:namedview><rect
     width="16"
     height="16"
     fill="#4760fc"
     id="rect1"
     style="fill:url(#linearGradient2)"
     x="0"
     y="0" /><g
     style="fill:none;stroke:currentColor;stroke-width:2;stroke-linecap:round;stroke-linejoin:round"
     id="g1"
     transform="matrix(0.66666666,0,0,0.66666666,4.0000001e-8,0.027227)"><path
       stroke="none"
       d="M 0,0 H 24 V 24 H 0 Z"
       fill="none"
       id="path1-6" /><path
       d="M 4,7 H 20"
       id="path2"
       style="stroke:#ffffff;stroke-opacity:1" /><path
       d="M 4,17 H 20"
       id="path3"
       style="stroke:#ffffff;stroke-opacity:1" /><path
       d="M 7,4 V 20"
       id="path4"
       style="stroke:#ffffff;stroke-opacity:1" /><path
       d="M 17,4 V 20"
       id="path5"
       style="stroke:#ffffff;stroke-opacity:1" /><g
       style="fill:none;stroke:currentColor;stroke-width:2;stroke-linecap:round;stroke-linejoin:round"
       id="g4"
       transform="matrix(0.41666664,0,0,0.41666664,7.0000001,7.0000006)"><path
         stroke="none"
         d="M 0,0 H 24 V 24 H 0 Z"
         fill="none"
         id="path1-7" /><path
         d="m 15,8 h 0.01"
         id="path2-4" /><path
         d="M 3,6 A 3,3 0 0 1 6,3 h 12 a 3,3 0 0 1 3,3 v 12 a 3,3 0 0 1 -3,3 H 6 A 3,3 0 0 1 3,18 Z"
         id="path3-4" /><path
         d="m 3,16 5,-5 c 0.928,-0.893 2.072,-0.893 3,0 l 5,5"
         id="path4-1" /><path
         d="m 14,14 1,-1 c 0.928,-0.893 2.072,-0.893 3,0 l 3,3"
         id="path5-95" /></g></g></svg>
